<svg width="18" height="18" viewBox="0 0 18 18" fill="none" xmlns="http://www.w3.org/2000/svg">
<g id="Essential Icons / send" clip-path="url(#clip0_24_80)">
<path id="Vector" fill-rule="evenodd" clip-rule="evenodd" d="M17.0303 0.969668C17.2341 1.1734 17.3031 1.47582 17.2079 1.74776L11.9579 16.7478C11.8563 17.038 11.5878 17.2368 11.2806 17.2494C10.9733 17.2619 10.6895 17.0856 10.5646 16.8046L7.6818 10.3182L1.1954 7.43536C0.91439 7.31046 0.738092 7.02668 0.750627 6.71943C0.763163 6.41217 0.961991 6.14369 1.25224 6.0421L16.2522 0.792104C16.5242 0.696925 16.8266 0.76594 17.0303 0.969668ZM9.14456 9.9161L11.1671 14.4667L14.7064 4.35426L9.14456 9.9161ZM13.6457 3.2936L3.53331 6.83295L8.0839 8.85544L13.6457 3.2936Z" fill="white"/>
</g>
<defs>
<clipPath id="clip0_24_80">
<rect width="18" height="18" fill="white"/>
</clipPath>
</defs>
</svg>
